<?xml version="1.0" encoding="utf-8"?>
<!-- Generator: Adobe Illustrator 15.1.0, SVG Export Plug-In . SVG Version: 6.00 Build 0)  -->
<!DOCTYPE svg PUBLIC "-//W3C//DTD SVG 1.1//EN" "http://www.w3.org/Graphics/SVG/1.1/DTD/svg11.dtd">
<svg version="1.1" id="Calque_1" xmlns="http://www.w3.org/2000/svg" xmlns:xlink="http://www.w3.org/1999/xlink" x="0px" y="0px"
	 width="512px" height="512px" viewBox="0 0 512 512" enable-background="new 0 0 512 512" xml:space="preserve">
<g>
	<path fill="#010101" d="M475.791,58.513H121.742c-19.967,0-36.209,16.785-36.209,37.42v183.272
		c-26.456,0.515-47.875,21.964-48.31,48.436C15.858,333.04,0,352.418,0,375.434c0,27.172,22.107,49.285,49.284,49.285
		c0.021,0,0.04,0,0.06,0c12.262,14.223,32.324,20.58,50.829,15.017c10.573,8.816,23.966,13.752,37.836,13.752
		c25.675,0,48.076-16.526,56.036-40.305c17.517-5.146,31.541-18.227,38.241-34.779h243.507c19.966,0,36.208-16.785,36.208-37.419
		V95.933C512,75.298,495.758,58.513,475.791,58.513z M182.513,391.055l-8.553,1.241l-1.58,8.495
		c-3.08,16.549-17.535,28.556-34.371,28.556c-9.896,0-19.394-4.267-26.057-11.708l-6.122-6.837l-8.223,4.076
		c-12.262,6.051-25.734,1.462-32.378-9.186l-4.201-6.734l-7.843,1.187c-1.28,0.197-2.562,0.433-3.902,0.433
		c-13.865,0-25.145-11.283-25.145-25.145c0-13.688,11.001-24.864,24.627-25.138l18.101,0.903l-4.452-16.047
		c-0.723-2.615-1.061-4.738-1.061-6.687c0-13.861,11.279-25.145,25.145-25.145c7.277,0,13.992,3.127,18.899,8.809l11.945,13.814
		l8.026-16.408c4.282-8.746,12.899-14.183,22.485-14.183c11.073,0,20.688,7.214,23.925,17.956l2.262,7.52l7.795,0.974
		c17.441,2.186,30.595,17.092,30.595,34.678C212.432,373.712,199.569,388.58,182.513,391.055z M487.861,340.984
		c0,7.322-5.414,13.279-12.069,13.279H236.524c-0.98-26.266-19.294-48.608-44.37-55.021c-8.074-17.036-25.056-28.029-44.3-28.029
		c-13.771,0-26.5,5.649-35.631,15.347c-0.835-0.519-1.687-1.008-2.549-1.476V95.933c0-7.323,5.414-13.279,12.069-13.279h354.049
		c6.655,0,12.069,5.955,12.069,13.279V340.984z"/>
	<path fill="#010101" d="M248.477,281.555c0,27.731,22.56,50.29,50.291,50.29c27.729,0,50.29-22.559,50.291-50.29v-40.5H248.477
		V281.555z M280.662,273.241h36.208v8.313c0,9.979-8.125,18.105-18.104,18.105c-9.979,0-18.104-8.126-18.104-18.105V273.241z"/>
	<path fill="#010101" d="M226.993,149.627c-27.731,0-50.292,22.561-50.292,50.291h32.187c0-9.984,8.121-18.104,18.105-18.104
		c9.983,0,18.104,8.121,18.104,18.104h32.186C277.283,172.187,254.724,149.627,226.993,149.627z"/>
	<path fill="#010101" d="M420.834,199.918c0-27.731-22.562-50.291-50.292-50.291c-27.729,0-50.29,22.561-50.29,50.291h32.187
		c0-9.984,8.125-18.104,18.104-18.104c9.979,0,18.105,8.121,18.105,18.104H420.834z"/>
	<path fill="#010101" d="M162.093,252.716c-5.39,0-9.759,4.368-9.759,9.755s4.369,9.756,9.759,9.756
		c5.383,0,9.752-4.369,9.752-9.756S167.477,252.716,162.093,252.716z"/>
	<path fill="#010101" d="M192.803,262.476c-5.391,0-9.759,4.369-9.759,9.751c0,5.39,4.368,9.76,9.759,9.76
		c5.383,0,9.752-4.37,9.752-9.76C202.555,266.845,198.186,262.476,192.803,262.476z"/>
	<path fill="#010101" d="M414.499,272.227c-5.39,0-9.761,4.369-9.761,9.76s4.371,9.76,9.761,9.76c5.382,0,9.753-4.369,9.753-9.76
		S419.881,272.227,414.499,272.227z"/>
	<path fill="#010101" d="M394.987,252.72c-5.39,0-9.76,4.368-9.76,9.756c0,5.386,4.37,9.751,9.76,9.751
		c5.383,0,9.751-4.365,9.751-9.751C404.738,257.088,400.37,252.72,394.987,252.72z"/>
</g>
</svg>
