<?xml version="1.0" encoding="utf-8"?>
<!-- Generator: Adobe Illustrator 15.1.0, SVG Export Plug-In . SVG Version: 6.00 Build 0)  -->
<!DOCTYPE svg PUBLIC "-//W3C//DTD SVG 1.1//EN" "http://www.w3.org/Graphics/SVG/1.1/DTD/svg11.dtd">
<svg version="1.1" id="Calque_1" xmlns="http://www.w3.org/2000/svg" xmlns:xlink="http://www.w3.org/1999/xlink" x="0px" y="0px"
	 width="512px" height="512px" viewBox="0 0 512 512" enable-background="new 0 0 512 512" xml:space="preserve">
<g id="outline">
	<path d="M503.468,0H8.534C3.822,0,0.001,3.82,0.001,8.534C0.062,60.35,42.052,102.339,93.868,102.4H204.8v34.134h-17.066
		c-4.713,0-8.534,3.821-8.534,8.533v42.666h-37.717c-21.743-0.002-40.011,16.346-42.412,37.957L72.525,464.623
		c-2.601,23.419,14.276,44.515,37.695,47.117c1.566,0.174,3.14,0.26,4.715,0.26h282.128c23.564,0.003,42.669-19.098,42.672-42.661
		c0-1.575-0.088-3.15-0.262-4.715l-26.546-238.933c-2.401-21.611-20.668-37.959-42.409-37.957H332.8v-42.666
		c0-4.712-3.82-8.533-8.533-8.533H307.2V102.4h110.932c51.817-0.062,93.806-42.051,93.867-93.867C512,3.82,508.18,0,503.468,0z
		 M370.52,204.799c13.035,0.007,23.985,9.811,25.428,22.767l26.556,238.933c0.797,7.235-1.518,14.471-6.365,19.899
		c-4.831,5.461-11.783,8.57-19.073,8.533H114.937c-7.29,0.037-14.241-3.073-19.073-8.533c-4.853-5.429-7.171-12.669-6.374-19.909
		l26.555-238.932c1.448-12.958,12.401-22.757,25.439-22.759L370.52,204.799L370.52,204.799z M315.734,153.6v34.134h-17.066v-17.067
		h-17.066v17.067h-17.068v-17.067h-17.066v17.067H230.4v-17.067h-17.067v17.067h-17.066V153.6H315.734z M221.867,136.533V102.4
		h68.268v34.134L221.867,136.533L221.867,136.533z M418.134,85.333H93.868c-39.095-0.049-71.933-29.419-76.321-68.267h476.91
		C490.067,55.914,457.23,85.285,418.134,85.333z"/>
	<path d="M153.601,349.867c0,56.555,45.845,102.4,102.4,102.4c56.555,0,102.399-45.846,102.399-102.4
		s-45.845-102.401-102.399-102.401C199.472,247.528,153.662,293.339,153.601,349.867z M256.001,341.333
		c4.712,0,8.533,3.82,8.533,8.534c0,4.713-3.822,8.533-8.533,8.533c-4.713,0-8.534-3.822-8.534-8.533
		C247.468,345.153,251.288,341.333,256.001,341.333z M247.468,264.969v60.869c-13.329,4.713-20.316,19.338-15.602,32.669
		c4.712,13.329,19.339,20.314,32.668,15.603c13.331-4.712,20.317-19.339,15.604-32.668c-2.577-7.291-8.313-13.026-15.604-15.604
		V264.97c46.893,4.713,81.086,46.548,76.373,93.438c-4.713,46.893-46.547,81.085-93.439,76.373
		c-46.893-4.713-81.085-46.547-76.372-93.438C175.155,300.963,207.088,269.026,247.468,264.969z"/>
	<rect x="68.268" y="51.201" width="102.399" height="17.067"/>
</g>
</svg>
