<?xml version="1.0" encoding="utf-8"?>
<!-- Generator: Adobe Illustrator 15.1.0, SVG Export Plug-In . SVG Version: 6.00 Build 0)  -->
<!DOCTYPE svg PUBLIC "-//W3C//DTD SVG 1.1//EN" "http://www.w3.org/Graphics/SVG/1.1/DTD/svg11.dtd">
<svg version="1.1" id="Calque_1" xmlns="http://www.w3.org/2000/svg" xmlns:xlink="http://www.w3.org/1999/xlink" x="0px" y="0px"
	 width="512px" height="512px" viewBox="0 0 512 512" enable-background="new 0 0 512 512" xml:space="preserve">
<path fill="#010101" d="M512,256c0,21.678-30.181,39.102-35.527,59.091c-5.531,20.681,11.73,50.827,1.254,68.934
	c-10.627,18.374-45.466,18.428-60.373,33.339c-14.904,14.907-14.961,49.743-33.327,60.369c-18.115,10.477-48.257-6.784-68.942-1.253
	c-19.995,5.347-37.411,35.518-59.088,35.518s-39.097-30.172-59.088-35.518c-20.686-5.531-50.832,11.729-68.947,1.253
	c-18.366-10.626-18.415-45.462-33.323-60.377c-14.907-14.907-49.746-14.957-60.377-33.335c-10.473-18.103,6.793-48.249,1.262-68.93
	C30.181,295.102,0,277.678,0,256c0-21.679,30.181-39.1,35.522-59.09c5.531-20.683-11.735-50.825-1.262-68.936
	c10.631-18.369,45.47-18.423,60.377-33.332c14.912-14.912,14.957-49.744,33.332-60.374c18.11-10.481,48.253,6.79,68.938,1.254
	c19.991-5.341,37.411-35.52,59.088-35.52s39.093,30.178,59.088,35.52c20.686,5.535,50.827-11.735,68.942-1.254
	c18.366,10.63,18.424,45.464,33.327,60.377c14.915,14.906,49.747,14.959,60.373,33.329c10.477,18.11-6.785,48.252-1.254,68.936
	C481.819,216.904,512,234.321,512,256z"/>
</svg>
