<?xml version="1.0" encoding="utf-8"?>
<!-- Generator: Adobe Illustrator 15.1.0, SVG Export Plug-In . SVG Version: 6.00 Build 0)  -->
<!DOCTYPE svg PUBLIC "-//W3C//DTD SVG 1.1//EN" "http://www.w3.org/Graphics/SVG/1.1/DTD/svg11.dtd">
<svg version="1.1" id="Calque_1" xmlns="http://www.w3.org/2000/svg" xmlns:xlink="http://www.w3.org/1999/xlink" x="0px" y="0px"
	 width="512px" height="512px" viewBox="0 0 512 512" enable-background="new 0 0 512 512" xml:space="preserve">
<path d="M85.255,358.479c-2.497-0.247-5.024-0.387-7.579-0.387c-40.104-0.105-73.566,30.603-76.896,70.562
	c-3.326,39.967,24.598,75.784,64.167,82.313c39.564,6.523,77.51-18.435,87.191-57.348c9.682-38.917-12.149-78.746-50.163-91.518
	c23.926-77.278,84.418-195.148,231.478-207.494v17.34c-19.155,0.845-38.027,4.947-55.806,12.134c-0.222,0.071-0.443,0.04-0.663,0.13
	c-0.138,0.06-0.226,0.183-0.363,0.247c-41.429,17.201-74.435,49.996-91.901,91.315l-0.072,0.106
	c-0.027,0.063-0.016,0.131-0.039,0.194c-26.59,63.601-12.123,136.961,36.62,185.707c48.747,48.746,122.105,63.219,185.708,36.636
	c0.065-0.028,0.139-0.016,0.206-0.045l0.109-0.069c41.295-17.454,74.074-50.433,91.287-91.826c0.076-0.159,0.198-0.276,0.267-0.439
	c0.084-0.2,0.052-0.41,0.119-0.611c16.881-41.291,16.745-87.586-0.377-128.78c-0.052-0.138-0.027-0.283-0.088-0.424
	c-0.035-0.096-0.118-0.149-0.157-0.242c-17.329-41.167-50.076-73.919-91.243-91.251c-0.101-0.043-0.159-0.13-0.259-0.169
	c-0.146-0.063-0.307-0.036-0.456-0.091c-17.77-7.301-36.652-11.52-55.837-12.468v-18.32c2.838-0.076,5.627-0.21,8.526-0.21
	c4.706,0,8.522-3.818,8.522-8.527c0-4.707-3.816-8.523-8.522-8.523c-2.9,0-5.685,0.139-8.526,0.21V67.181
	c27.455-3.27,51.154-14.475,51.154-33.077C401.663,11.713,367.352,0,333.453,0h-25.577c-4.707,0-8.521,3.817-8.521,8.527
	c0,4.706,3.815,8.523,8.521,8.523h25.577c31.736,0,51.16,11.043,51.16,17.055c0,6.011-19.424,17.05-51.16,17.05h-25.577
	c-4.707,0-8.521,3.818-8.521,8.527s3.815,8.526,8.521,8.526h25.577v69.285c-79.208,4.741-151.698,46.092-196.096,111.863v-62.42
	l30.153-5.48c12.166-2.21,21.007-12.805,21.002-25.168v-2.821c-0.017-14.123-11.455-25.562-25.577-25.578H109.48
	c-12.058-0.02-23.089,6.785-28.485,17.566c-5.398,10.78-4.234,23.685,3.004,33.327c7.241,9.642,19.308,14.364,31.168,12.189
	l5.146-0.936v86.188C105.65,302.275,93.893,329.859,85.255,358.479z M86.204,434.829c0,4.707-3.818,8.526-8.527,8.526
	c-4.71,0-8.527-3.82-8.527-8.526c0-4.711,3.817-8.527,8.527-8.527C82.382,426.309,86.195,430.122,86.204,434.829z M137.359,434.829
	c0,32.963-26.72,59.682-59.682,59.682c-32.963,0-59.682-26.72-59.682-59.682s26.719-59.683,59.682-59.683
	c0.943,0,1.87,0.096,2.802,0.143c-3.592,13.616-6.063,25.38-7.723,34.459c-12.352,2.302-21.243,13.179-21.05,25.74
	c0.199,12.566,9.429,23.156,21.848,25.073c12.416,1.913,24.407-5.408,28.379-17.328c3.972-11.919-1.229-24.969-12.317-30.885
	c1.638-8.922,4.075-20.464,7.642-33.837C121.232,386.855,137.316,409.442,137.359,434.829z M275.799,203.619l45.708,110.326
	c-2.504,1.896-4.729,4.125-6.626,6.626l-110.777-45.862C219.313,243.612,244.576,218.563,275.799,203.619z M188.513,341.554
	c0.037-17.431,3.075-34.723,8.976-51.123l110.869,45.891c-0.641,3.105-0.641,6.312,0,9.418l-111.189,46.057
	C191.474,375.654,188.55,358.668,188.513,341.554z M203.7,407.552l111.169-46.046c1.901,2.51,4.138,4.748,6.649,6.649
	l-46.044,111.17c-31.365-15.105-56.669-40.411-71.775-71.777V407.552z M341.471,494.511c-17.119-0.036-34.105-2.959-50.247-8.655
	l46.057-111.187c3.106,0.636,6.313,0.636,9.419,0l45.894,110.87C376.193,491.439,358.9,494.475,341.471,494.511z M324.932,341.042
	c0-9.42,7.633-17.055,17.051-17.055c9.419,0,17.055,7.635,17.055,17.055c0,9.416-7.636,17.05-17.055,17.05
	C332.568,358.084,324.94,350.454,324.932,341.042z M408.315,478.925l-45.863-110.781c2.505-1.897,4.735-4.122,6.627-6.626
	l110.33,45.71C464.46,438.451,439.41,463.712,408.315,478.925z M494.434,341.554c-0.031,16.995-2.912,33.866-8.523,49.909
	l-110.297-45.698c0.636-3.116,0.636-6.326,0-9.439l109.979-45.547C491.41,307.078,494.403,324.248,494.434,341.554z
	 M407.969,204.012c30.969,15.053,55.987,40.068,71.039,71.039l-109.927,45.517c-1.896-2.501-4.125-4.73-6.626-6.627L407.969,204.012
	z M341.471,188.597c17.302,0.037,34.471,3.024,50.765,8.841l-45.532,109.977c-3.114-0.635-6.328-0.635-9.444,0L291.567,197.12
	C307.608,191.509,324.475,188.629,341.471,188.597z M112.115,174.197c-4.302,0.782-8.73-0.385-12.086-3.187
	c-3.357-2.802-5.297-6.948-5.301-11.316c0.008-8.146,6.606-14.744,14.752-14.752h53.457c4.706,0.008,8.518,3.82,8.526,8.527v2.821
	c0,4.123-2.948,7.654-7.003,8.388L112.115,174.197z"/>
</svg>
