<?xml version="1.0" encoding="utf-8"?>
<!-- Generator: Adobe Illustrator 15.1.0, SVG Export Plug-In . SVG Version: 6.00 Build 0)  -->
<!DOCTYPE svg PUBLIC "-//W3C//DTD SVG 1.1//EN" "http://www.w3.org/Graphics/SVG/1.1/DTD/svg11.dtd">
<svg version="1.1" id="Calque_1" xmlns="http://www.w3.org/2000/svg" xmlns:xlink="http://www.w3.org/1999/xlink" x="0px" y="0px"
	 width="512px" height="512px" viewBox="0 0 512 512" enable-background="new 0 0 512 512" xml:space="preserve">
<g>
	<path fill="#010101" d="M256,349.968c-29.408,0-53.333,23.925-53.333,53.333H236.8c0-10.584,8.613-19.199,19.2-19.199
		c10.588,0,19.2,8.617,19.2,19.199h34.134C309.334,373.893,285.408,349.968,256,349.968z"/>
	<path fill="#010101" d="M179.883,253.968c-29.408,0-53.334,23.924-53.334,53.332h34.134c0-10.583,8.613-19.198,19.201-19.198
		c10.587,0,19.2,8.616,19.2,19.198h34.133C233.217,277.893,209.293,253.968,179.883,253.968z"/>
	<path fill="#010101" d="M332.116,253.968c-29.409,0-53.333,23.924-53.333,53.332h34.133c0-10.583,8.617-19.198,19.201-19.198
		s19.199,8.616,19.199,19.198h34.135C385.451,277.893,361.526,253.968,332.116,253.968z"/>
	<path fill="#010101" d="M116.608,363.293c-5.717,0-10.351,4.634-10.351,10.342c0,5.717,4.635,10.35,10.351,10.35
		c5.709,0,10.343-4.633,10.343-10.35C126.951,367.927,122.316,363.293,116.608,363.293z"/>
	<path fill="#010101" d="M149.175,373.643c-5.718,0-10.351,4.633-10.351,10.342c0,5.717,4.634,10.35,10.351,10.35
		c5.709,0,10.342-4.633,10.342-10.35C159.517,378.275,154.884,373.643,149.175,373.643z"/>
	<path fill="#010101" d="M384.284,383.984c-5.716,0-10.35,4.634-10.35,10.35c0,5.718,4.634,10.351,10.35,10.351
		c5.707,0,10.343-4.633,10.343-10.351C394.627,388.618,389.991,383.984,384.284,383.984z"/>
	<path fill="#010101" d="M363.593,363.302c-5.716,0-10.352,4.633-10.352,10.341c0,5.709,4.636,10.342,10.352,10.342
		c5.707,0,10.342-4.633,10.342-10.342C373.935,367.935,369.3,363.302,363.593,363.302z"/>
	<path fill="#010101" d="M473.602,157.344H371.499c-0.143-1.102-0.475-2.231-1.016-3.325L303.326,18.56
		c-2.092-4.225-6.467-6.317-9.775-4.679l-21.959,10.883c-3.308,1.647-4.291,6.393-2.19,10.609l60.459,121.972H182.132
		l60.462-121.972c2.1-4.216,1.117-8.962-2.192-10.609L218.443,13.88c-3.309-1.638-7.684,0.455-9.775,4.679L141.51,154.019
		c-0.542,1.094-0.874,2.223-1.017,3.325H38.4c-21.176,0-38.4,17.225-38.4,38.4v2.012l85.396,264.729
		c1.146,20.15,17.904,36.192,38.337,36.192h264.535c20.434,0,37.192-16.042,38.333-36.192L512,197.756v-2.012
		C512,174.569,494.776,157.344,473.602,157.344z M401.067,458.26v2.017c0,7.059-5.742,12.8-12.8,12.8H123.732
		c-7.058,0-12.799-5.741-12.799-12.8v-2.017L25.708,194.068c0.825-6.271,6.2-11.125,12.692-11.125h435.2
		c6.491,0,11.866,4.854,12.691,11.125L401.067,458.26z"/>
</g>
</svg>
