<?xml version="1.0" encoding="utf-8"?>
<!-- Generator: Adobe Illustrator 15.1.0, SVG Export Plug-In . SVG Version: 6.00 Build 0)  -->
<!DOCTYPE svg PUBLIC "-//W3C//DTD SVG 1.1//EN" "http://www.w3.org/Graphics/SVG/1.1/DTD/svg11.dtd">
<svg version="1.1" id="Calque_1" xmlns="http://www.w3.org/2000/svg" xmlns:xlink="http://www.w3.org/1999/xlink" x="0px" y="0px"
	 width="512px" height="512px" viewBox="0 0 512 512" enable-background="new 0 0 512 512" xml:space="preserve">
<g>
	<path fill="#010101" d="M202.668,393.877c0,29.407,23.923,53.333,53.332,53.333c29.409,0,53.334-23.926,53.334-53.333v-42.951
		H202.668V393.877z M236.801,385.06h38.398v8.817c0,10.582-8.612,19.199-19.199,19.199c-10.586,0-19.199-8.615-19.199-19.199V385.06
		z"/>
	<path fill="#010101" d="M179.884,253.967c-29.408,0-53.333,23.925-53.333,53.334h34.133c0-10.585,8.612-19.201,19.2-19.201
		s19.2,8.616,19.2,19.201h34.133C233.217,277.893,209.294,253.967,179.884,253.967z"/>
	<path fill="#010101" d="M332.117,253.967c-29.407,0-53.332,23.925-53.332,53.334h34.133c0-10.585,8.617-19.201,19.199-19.201
		c10.583,0,19.2,8.616,19.2,19.201h34.134C385.451,277.893,361.525,253.967,332.117,253.967z"/>
	<path fill="#010101" d="M116.61,363.293c-5.717,0-10.351,4.632-10.351,10.341c0,5.716,4.633,10.351,10.351,10.351
		c5.708,0,10.34-4.634,10.34-10.351C126.95,367.925,122.318,363.293,116.61,363.293z"/>
	<path fill="#010101" d="M149.175,373.644c-5.717,0-10.35,4.634-10.35,10.341c0,5.717,4.633,10.351,10.35,10.351
		c5.708,0,10.342-4.633,10.342-10.351C159.517,378.277,154.883,373.643,149.175,373.644z"/>
	<path fill="#010101" d="M384.285,383.984c-5.716,0-10.351,4.635-10.351,10.351c0,5.717,4.634,10.349,10.351,10.349
		c5.707,0,10.341-4.632,10.341-10.349S389.992,383.984,384.285,383.984z"/>
	<path fill="#010101" d="M363.592,363.302c-5.716,0-10.349,4.631-10.349,10.341c0,5.707,4.632,10.342,10.349,10.342
		c5.708,0,10.342-4.634,10.342-10.342C373.934,367.933,369.301,363.302,363.592,363.302z"/>
	<path fill="#010101" d="M473.602,157.342H371.501c-0.143-1.102-0.474-2.23-1.016-3.324L303.327,18.559
		c-2.092-4.225-6.468-6.316-9.775-4.679l-21.958,10.883c-3.308,1.646-4.292,6.392-2.191,10.609l60.459,121.97H182.133l60.459-121.97
		c2.1-4.217,1.116-8.963-2.193-10.609L218.441,13.88c-3.308-1.637-7.683,0.454-9.774,4.679l-67.159,135.458
		c-0.542,1.094-0.872,2.223-1.015,3.324H38.4c-21.175,0-38.4,17.225-38.4,38.4v2.013l85.396,264.729
		c1.147,20.15,17.904,36.192,38.338,36.192h264.534c20.433,0,37.191-16.042,38.333-36.192L512,197.755v-2.013
		C512,174.566,494.776,157.342,473.602,157.342z M401.067,458.261v2.017c0,7.058-5.741,12.8-12.8,12.8H123.735
		c-7.059,0-12.801-5.742-12.801-12.8v-2.017L25.708,194.068c0.825-6.272,6.201-11.126,12.692-11.125h435.202
		c6.491,0,11.866,4.854,12.69,11.125L401.067,458.261z"/>
</g>
</svg>
