<?xml version="1.0" encoding="utf-8"?>
<!-- Generator: Adobe Illustrator 15.1.0, SVG Export Plug-In . SVG Version: 6.00 Build 0)  -->
<!DOCTYPE svg PUBLIC "-//W3C//DTD SVG 1.1//EN" "http://www.w3.org/Graphics/SVG/1.1/DTD/svg11.dtd">
<svg version="1.1" id="Calque_1" xmlns="http://www.w3.org/2000/svg" xmlns:xlink="http://www.w3.org/1999/xlink" x="0px" y="0px"
	 width="512px" height="512px" viewBox="0 0 512 512" enable-background="new 0 0 512 512" xml:space="preserve">
<path fill="#010002" d="M421.293,15.558L255.996,180.856L90.7,15.559c-20.746-20.746-54.387-20.746-75.133,0
	C-5.177,36.304-5.197,69.943,15.56,90.7l165.296,165.296L15.567,421.284c-20.753,20.755-20.753,54.396,0,75.152
	c20.757,20.753,54.377,20.753,75.141-0.012l165.288-165.288l165.287,165.288c20.757,20.757,54.398,20.757,75.151,0
	c20.756-20.753,20.756-54.375-0.009-75.141L331.136,255.996L496.434,90.699c20.745-20.746,20.745-54.387,0-75.132
	C475.69-5.178,442.05-5.197,421.293,15.558z"/>
</svg>
