<?xml version="1.0" encoding="utf-8"?>
<!-- Generator: Adobe Illustrator 15.1.0, SVG Export Plug-In . SVG Version: 6.00 Build 0)  -->
<!DOCTYPE svg PUBLIC "-//W3C//DTD SVG 1.1//EN" "http://www.w3.org/Graphics/SVG/1.1/DTD/svg11.dtd">
<svg version="1.1" id="Calque_1" xmlns="http://www.w3.org/2000/svg" xmlns:xlink="http://www.w3.org/1999/xlink" x="0px" y="0px"
	 width="512px" height="512px" viewBox="0 0 512 512" enable-background="new 0 0 512 512" xml:space="preserve">
<g>
	<path d="M371.613,198.194c0-107.653-105.977-192.833-110.484-196.41c-3.004-2.378-7.25-2.378-10.258,0
		c-4.508,3.577-110.483,88.757-110.483,196.41c0,98.774,89.188,178.574,107.354,193.832v86.942c0,4.561,3.698,8.257,8.259,8.257
		s8.257-3.696,8.257-8.257v-86.942C282.426,376.768,371.613,296.968,371.613,198.194z M264.257,369.795V276.34l46.577-38.762
		c3.509-2.92,3.984-8.129,1.065-11.638c-2.92-3.508-8.13-3.983-11.633-1.064l-36.008,29.976v-28.076l46.576-38.766
		c3.509-2.916,3.984-8.125,1.065-11.634c-2.92-3.509-8.13-3.985-11.633-1.065l-36.008,29.992v-36.333l46.576-38.766
		c3.509-2.916,3.984-8.125,1.065-11.633c-2.92-3.507-8.13-3.983-11.633-1.064l-36.008,29.991V82.583
		c0-4.561-3.697-8.259-8.258-8.259s-8.259,3.698-8.259,8.259v64.915l-36.003-29.976c-3.507-2.919-8.717-2.444-11.637,1.065
		c-2.92,3.508-2.44,8.717,1.069,11.636l46.571,38.763v36.334l-36.003-29.976c-3.507-2.919-8.717-2.444-11.637,1.063
		c-2.92,3.509-2.44,8.719,1.069,11.638l46.571,38.746v28.077l-36.003-29.976c-3.507-2.919-8.717-2.443-11.637,1.065
		c-2.92,3.509-2.44,8.718,1.069,11.638l46.571,38.747v93.454c-28.077-26.342-90.839-93.858-90.839-171.601
		c0-86.661,78.113-160.776,99.098-179.117c20.982,18.339,99.097,92.456,99.097,179.117
		C355.097,275.937,292.334,343.452,264.257,369.795z"/>
	<path d="M198.193,437.678h-8.258v-60.64c0.028-10.955-4.325-21.468-12.096-29.191l-69.515-69.55
		c-9.667-9.626-25.299-9.626-34.965,0l-7.295,7.317v-87.42c-0.008-9.176-3.831-17.935-10.552-24.181
		c-6.718-6.25-15.73-9.424-24.883-8.77C13.028,166.957-0.306,181.904,0,199.589v117.963c-0.004,10.273,3.823,20.177,10.738,27.774
		l71.842,79.026v13.323h-8.258c-4.561,0-8.259,3.697-8.259,8.258v57.807c0,4.562,3.698,8.258,8.259,8.258h123.87
		c4.561,0,8.259-3.696,8.259-8.258v-57.807C206.452,441.375,202.754,437.678,198.193,437.678z M22.96,334.211
		c-4.15-4.554-6.447-10.497-6.443-16.656V199.589c-0.222-8.992,6.374-16.705,15.294-17.871c4.79-0.342,9.495,1.411,12.89,4.807
		c3.113,3.084,4.859,7.286,4.847,11.668v100.508c-0.02,6.578,2.593,12.888,7.258,17.525l44.709,44.71
		c3.243,3.129,8.392,3.084,11.577-0.103c3.185-3.185,3.229-8.338,0.101-11.576L75.29,311.353c-1.544-1.537-2.411-3.626-2.411-5.803
		c0-2.182,0.867-4.271,2.411-5.807l9.747-9.736c3.214-3.178,8.39-3.178,11.608,0l69.516,69.523
		c4.633,4.653,7.243,10.943,7.257,17.509v60.64H99.097v-19.715L22.96,334.211z M189.935,495.483H82.581v-41.289h107.354V495.483z"/>
	<path d="M481.369,165.243c-9.148-0.654-18.164,2.52-24.883,8.77c-6.718,6.246-10.54,15.003-10.553,24.181v87.42l-7.29-7.295
		c-9.666-9.625-25.297-9.625-34.963,0l-69.517,69.527c-7.77,7.724-12.125,18.236-12.1,29.191v60.64h-8.259
		c-4.561,0-8.258,3.697-8.258,8.258v57.807c0,4.562,3.697,8.258,8.258,8.258h123.871c4.561,0,8.257-3.696,8.257-8.258v-57.807
		c0-4.561-3.696-8.258-8.257-8.258h-8.258v-13.323l71.846-79.026c6.915-7.598,10.742-17.5,10.735-27.773V199.589
		C512.306,181.904,498.975,166.957,481.369,165.243z M429.419,495.483H322.065v-41.289h107.354V495.483z M495.482,317.555
		c0.008,6.159-2.29,12.103-6.439,16.656l-76.141,83.753v19.714h-74.322v-60.64c0.017-6.565,2.625-12.863,7.258-17.518l69.545-69.514
		c3.213-3.179,8.392-3.179,11.609,0l9.744,9.745c3.183,3.196,3.183,8.361,0,11.561l-37.922,37.923
		c-2.146,2.073-3.009,5.141-2.25,8.028c0.753,2.888,3.012,5.146,5.898,5.899c2.887,0.753,5.955-0.105,8.028-2.255l44.709-44.706
		c4.653-4.637,7.263-10.936,7.251-17.5V198.194c-0.009-4.383,1.737-8.584,4.847-11.669c3.397-3.396,8.101-5.146,12.892-4.807
		c8.918,1.166,15.518,8.879,15.292,17.871L495.482,317.555L495.482,317.555z"/>
	<path d="M250.138,497.879c-1.513,1.581-2.367,3.674-2.396,5.862c0.016,0.553,0.069,1.105,0.166,1.65
		c0.092,0.52,0.258,1.02,0.497,1.487c0.181,0.524,0.431,1.024,0.741,1.488c0.308,0.431,0.637,0.842,0.993,1.238
		c3.257,3.193,8.473,3.193,11.726,0l0.99-1.238c0.312-0.464,0.562-0.964,0.743-1.488c0.241-0.468,0.406-0.968,0.486-1.487
		c0.105-0.545,0.161-1.098,0.173-1.65c0.021-3.354-1.991-6.392-5.088-7.678C256.068,494.777,252.501,495.495,250.138,497.879z"/>
	<path d="M99.098,478.968h33.032c4.561,0,8.258-3.696,8.258-8.256c0-4.563-3.697-8.259-8.258-8.259H99.098
		c-4.561,0-8.259,3.696-8.259,8.259C90.839,475.271,94.536,478.968,99.098,478.968z"/>
	<path d="M153.767,478.307c0.992,0.423,2.061,0.646,3.137,0.66c3.355,0.018,6.392-1.995,7.678-5.092
		c1.286-3.098,0.568-6.67-1.814-9.028c-2.375-2.347-5.923-3.027-9-1.738c-1.012,0.4-1.936,0.988-2.727,1.738
		c-1.513,1.581-2.367,3.674-2.394,5.863C148.569,474.068,150.621,477.117,153.767,478.307z"/>
	<path d="M338.406,213.057c-0.08-0.516-0.245-1.021-0.486-1.488c-0.184-0.524-0.434-1.025-0.742-1.484l-0.991-1.238
		c-3.312-3.057-8.415-3.057-11.725,0c-0.355,0.391-0.687,0.802-0.992,1.238c-0.311,0.459-0.561,0.96-0.741,1.484
		c-0.237,0.467-0.403,0.972-0.496,1.488c-0.094,0.548-0.146,1.096-0.165,1.653c0.027,2.185,0.883,4.282,2.396,5.863
		c1.572,1.523,3.674,2.378,5.861,2.395c2.198,0.02,4.312-0.843,5.867-2.395c1.552-1.552,2.415-3.669,2.391-5.863
		C338.565,214.154,338.507,213.602,338.406,213.057z"/>
</g>
</svg>
