<?xml version="1.0" encoding="utf-8"?>
<!-- Generator: Adobe Illustrator 15.1.0, SVG Export Plug-In . SVG Version: 6.00 Build 0)  -->
<!DOCTYPE svg PUBLIC "-//W3C//DTD SVG 1.1//EN" "http://www.w3.org/Graphics/SVG/1.1/DTD/svg11.dtd">
<svg version="1.1" id="Calque_1" xmlns="http://www.w3.org/2000/svg" xmlns:xlink="http://www.w3.org/1999/xlink" x="0px" y="0px"
	 width="512px" height="512px" viewBox="0 0 512 512" enable-background="new 0 0 512 512" xml:space="preserve">
<path d="M511.849,299.48c-0.168-2.48-1.473-4.738-3.534-6.121c-19.223-12.859-43.6-15.316-65.793-7.264
	c-4.21-23.057-18.516-43.158-39.058-53.265c-2.216-1.097-4.839-1.097-7.062,0c-10.76,5.3-19.715,13.435-26.529,23.194h-18.732
	c-3.711-18.21-19.836-31.961-39.136-31.985c-0.009,0-0.017-0.008-0.023-0.008h-104v-16.566c31.521-3.948,56.011-30.856,56.011-63.43
	c0-30.856-25.139-120.03-63.985-120.03c-38.847,0-63.985,89.167-63.985,120.03c0,32.551,24.467,59.466,55.963,63.422v16.574H87.947
	c-0.022,0-0.047,0.016-0.073,0.016c-19.242,0.07-35.335,13.798-39.038,31.977H7.998c-4.426,0-7.998,3.573-7.998,7.999v71.982
	c0,49.18,29.777,91.498,72.221,110.006c-5.014,4.396-8.252,10.783-8.252,17.965c0,13.229,10.767,23.994,23.995,23.994h224.018
	c13.231,0,23.994-10.768,23.994-23.994c0-7.174-3.222-13.549-8.229-17.949c5.727-2.486,11.271-5.404,16.578-8.791
	c4.37-0.75,8.662-1.887,12.896-3.396c4.128,23.252,18.444,43.109,39.175,53.33c1.12,0.543,2.327,0.824,3.534,0.824
	s2.425-0.273,3.525-0.824c20.758-10.211,35.073-30.078,39.194-53.338c8.403,2.998,17.136,4.646,25.825,4.646
	c14.13,0,28.041-3.961,39.812-11.83c2.073-1.383,3.378-3.639,3.538-6.119c1.503-22.826-8.744-45.27-26.604-60.441
	C503.33,344.891,513.375,322.561,511.849,299.48z M399.938,249.089c17.133,10.141,27.993,29.672,27.993,50.903
	c0,13.652-4.335,26.416-12.229,36.725c-4.472-3.02-9.854-4.791-15.645-4.791c-5.847,0-11.279,1.816-15.773,4.896
	c-7.878-10.316-12.342-23.346-12.342-36.83C371.943,278.77,382.805,259.223,399.938,249.089z M412.056,359.912
	c0,6.615-5.382,12.004-11.997,12.004c-6.616,0-11.997-5.389-11.997-12.004c0-6.605,5.381-11.99,11.997-11.99
	C406.674,347.922,412.056,353.307,412.056,359.912z M152.018,144.036c0-31.008,25.107-104.034,47.989-104.034
	c22.885,0,47.989,73.026,47.989,104.034c0,23.736-17.34,43.455-40.015,47.266v-31.27c0-4.425-3.572-7.998-7.998-7.998
	c-4.421,0-7.998,3.573-7.998,7.998v31.262C169.335,187.463,152.018,167.756,152.018,144.036z M88.018,240.029h223.948
	c10.415,0,19.202,6.709,22.515,15.996H65.504C68.815,246.738,77.606,240.029,88.018,240.029z M15.996,272.021h345.317
	c-1.749,4.512-3.069,9.221-3.948,14.066c-18.637-6.764-38.784-6.068-56.153,1.945H15.996V272.021z M368.128,341.639
	c-13.517-0.633-27.264,2.451-39.572,8.953c-15.316-11.09-24.506-28.102-24.658-46.051c15.613-8.83,34.933-9.391,52.194-1.664
	C356.611,316.785,360.81,330.23,368.128,341.639z M15.996,336.006v-31.977h272.072c-0.016,21.443,9.693,41.859,26.568,56.057
	c-17.852,15.166-28.103,37.617-26.592,60.451c0.168,2.479,1.473,4.736,3.535,6.119c5.83,3.895,12.173,6.822,18.818,8.791
	c-9.782,2.982-20.019,4.541-30.435,4.541H119.971C62.641,439.982,15.996,393.336,15.996,336.006z M311.981,471.975H87.964
	c-4.417,0-7.998-3.586-7.998-7.998c0-4.418,3.581-7.998,7.998-7.998h224.018c4.417,0,7.998,3.58,7.998,7.998
	C319.979,468.389,316.398,471.975,311.981,471.975z M303.897,415.461c0.207-19.902,11.692-39.082,30.071-49.689
	c11.759-6.779,25.346-9.436,38.278-7.717c-0.039,0.625-0.184,1.227-0.184,1.855c0,11.012,6.456,20.475,15.716,25.045
	c-4.982,12.066-14.06,22.514-25.811,29.301C343.599,424.857,321.222,425.209,303.897,415.461z M399.938,470.908
	c-15.469-9.107-25.592-25.561-27.545-44.355c11.791-7.414,21.331-17.777,27.545-29.811c6.225,12.031,15.766,22.389,27.548,29.785
	C425.54,445.348,415.413,461.801,399.938,470.908z M495.989,415.461c-17.34,9.77-39.697,9.402-58.076-1.211
	c-11.709-6.756-20.779-17.164-25.771-29.186c9.377-4.525,15.902-14.053,15.902-25.146c0-0.656-0.152-1.26-0.191-1.908
	c12.923-1.719,26.186,0.908,38.054,7.775C484.283,376.379,495.771,395.551,495.989,415.461z M471.347,350.584
	c-12.438-6.588-25.979-9.686-39.487-9.021c7.326-11.355,11.427-24.627,11.931-38.688c17.263-7.725,36.594-7.166,52.207,1.664
	C495.853,322.49,486.662,339.494,471.347,350.584z"/>
</svg>
