<?xml version="1.0" encoding="utf-8"?>
<!-- Generator: Adobe Illustrator 15.1.0, SVG Export Plug-In . SVG Version: 6.00 Build 0)  -->
<!DOCTYPE svg PUBLIC "-//W3C//DTD SVG 1.1//EN" "http://www.w3.org/Graphics/SVG/1.1/DTD/svg11.dtd">
<svg version="1.1" id="Calque_1" xmlns="http://www.w3.org/2000/svg" xmlns:xlink="http://www.w3.org/1999/xlink" x="0px" y="0px"
	 width="512px" height="512px" viewBox="0 0 512 512" enable-background="new 0 0 512 512" xml:space="preserve">
<g>
	<path d="M326.149,323.079c-0.285-4.485-0.82-8.891-1.471-13.301c-0.159-1.063-0.324-2.121-0.502-3.176
		c-0.733-4.349-1.591-8.654-2.678-12.848c-0.072-0.275-0.158-0.54-0.24-0.811c-1.066-4.076-2.331-8.08-3.716-12.03
		c-0.313-0.878-0.612-1.752-0.935-2.63c-1.563-4.196-3.263-8.326-5.157-12.358l-0.266-0.511c-1.979-4.09-4.092-8.063-6.373-11.954
		c-0.231-0.376-0.448-0.762-0.675-1.148c-13.868-23.179-33.487-42.388-56.951-55.77c-15.224-8.302-25.615-23.329-28.012-40.506
		c16.373-0.121,29.542-13.493,29.416-29.86c-0.12-16.368-13.487-29.536-29.859-29.416h-2.754l-1.129-3.367
		c-3.748-11.292-4.694-23.324-2.745-35.061c2.836-16.98-4.641-34.027-19.05-43.444c-14.409-9.416-33.024-9.416-47.433,0
		c-14.414,9.417-21.887,26.464-19.05,43.444c1.949,11.736,1.004,23.777-2.75,35.069l-1.124,3.357h-2.759
		c-16.368-0.125-29.739,13.043-29.864,29.411c-0.127,16.367,13.043,29.739,29.41,29.865c-2.393,17.177-12.783,32.203-28.008,40.506
		c-23.458,13.382-43.072,32.581-56.946,55.75l-0.649,1.113c-2.292,3.904-4.443,7.908-6.393,11.998
		c-0.076,0.154-0.168,0.313-0.245,0.481c-1.906,4.043-3.609,8.183-5.167,12.38c-0.329,0.866-0.622,1.74-0.932,2.618
		c-1.39,3.95-2.668,7.974-3.733,12.05c-0.067,0.271-0.159,0.527-0.228,0.793c-1.085,4.229-1.978,8.547-2.677,12.846
		c-0.189,1.056-0.348,2.111-0.502,3.178c-0.656,4.396-1.188,8.813-1.477,13.299L9.272,375.22
		c-1.523,23.764,3.657,47.473,14.945,68.438c0.29,0.548,0.593,1.094,0.902,1.639c1.379,2.499,2.813,4.94,4.375,7.38
		c0.434,0.671,0.906,1.305,1.351,1.976c2.484,3.68,5.157,7.234,8.002,10.64c1.129,1.352,2.233,2.727,3.42,4.021
		c0.554,0.61,0.989,1.276,1.582,1.864c0.926,0.989,1.973,1.838,2.884,2.788c1.124,1.115,2.264,2.216,3.426,3.291
		c1.771,1.648,3.56,3.28,5.406,4.818c0.198,0.17,0.426,0.329,0.623,0.498c7.342,6.039,15.335,11.233,23.834,15.487l0.159,0.076
		c8.062,4.03,16.532,7.185,25.263,9.409c0.989,0.255,1.979,0.545,2.963,0.781c2.094,0.473,4.19,0.877,6.313,1.253
		s4.12,0.671,6.204,0.988c1.592,0.196,3.174,0.424,4.771,0.563c3.874,0.354,7.767,0.589,11.708,0.589h63.753
		c3.95,0,7.835-0.235,11.698-0.589c1.62-0.141,3.208-0.367,4.818-0.563c2.063-0.278,4.11-0.583,6.155-0.988s4.25-0.78,6.344-1.253
		c0.988-0.236,1.978-0.518,2.961-0.765c8.77-2.229,17.27-5.387,25.364-9.437l0.105-0.057c8.52-4.26,16.526-9.465,23.879-15.519
		c0.197-0.159,0.405-0.309,0.604-0.479c1.848-1.538,3.637-3.17,5.401-4.818c1.168-1.075,2.307-2.171,3.421-3.291
		c0.987-0.988,1.974-1.799,2.895-2.788c0.565-0.603,0.988-1.254,1.593-1.865c1.162-1.294,2.271-2.658,3.395-4.001
		c2.867-3.438,5.539-6.988,8.023-10.658c0.435-0.651,0.911-1.284,1.346-1.976c1.559-2.41,2.961-4.881,4.386-7.38
		c0.294-0.545,0.603-1.091,0.896-1.639c11.282-20.967,16.459-44.675,14.94-68.438L326.149,323.079z M237.395,213.674
		c0.878,0.498,1.641,1.129,2.5,1.64H206.61v-33.926C213.464,194.953,224.174,206.183,237.395,213.674z M146.06,55.075
		c-1.164-6.831,0.751-13.83,5.229-19.117c4.616-5.07,11.152-7.955,18.007-7.955c6.854,0,13.396,2.885,18.012,7.955
		c4.487,5.287,6.416,12.286,5.263,19.126c-2.292,13.913-1.394,28.167,2.629,41.679h-51.727
		C147.478,83.242,148.36,68.986,146.06,55.075z M110.059,126.399c0-5.455,4.423-9.879,9.879-9.879h98.793
		c5.456,0,9.879,4.424,9.879,9.879c0,5.456-4.423,9.879-9.879,9.879h-98.793C114.482,136.279,110.059,131.856,110.059,126.399z
		 M147.334,215.313v-59.274h39.517v59.274H147.334L147.334,215.313z M186.85,235.072v55.167c-0.009,7.664-1.794,15.224-5.214,22.082
		l-14.544,29.095l-14.539-29.095c-3.42-6.858-5.205-14.418-5.22-22.082v-55.167H186.85z M101.279,213.674
		c10.564-6.01,19.575-14.418,26.296-24.548v26.188H98.781C99.639,214.803,100.406,214.171,101.279,213.674z M290.646,444.85
		c-0.279,0.405-0.556,0.819-0.849,1.234c-1.584,2.234-3.412,4.271-5.148,6.372h-48.402v19.759h26.902
		c-9.709,6.879-20.486,12.113-31.899,15.495l-0.574,0.145c-4.164,1.158-8.398,2.064-12.673,2.712
		c-0.932,0.135-1.837,0.304-2.77,0.425c-4.649,0.631-9.333,0.959-14.027,0.982h-63.752c-4.68-0.023-9.35-0.353-13.989-0.982
		c-0.984-0.121-1.867-0.29-2.803-0.425c-4.25-0.646-8.456-1.549-12.596-2.701l-0.665-0.164c-9.417-2.731-18.423-6.714-26.772-11.856
		l-0.098-0.058c-4.09-2.523-8.003-5.321-11.717-8.37l-0.337-0.256c-7.419-6.121-13.999-13.193-19.561-21.043
		c-0.305-0.436-0.604-0.881-0.897-1.315c-2.701-3.884-5.143-7.935-7.312-12.143h257.257c-2.171,4.208-4.617,8.269-7.317,12.151
		v0.038H290.646z M309.492,391.437c-0.115,1.629-0.246,3.25-0.434,4.86c-0.257,2.113-0.584,4.226-0.99,6.32
		c-0.154,0.892-0.323,1.77-0.511,2.647c-0.526,2.551-1.105,5.09-1.82,7.606v0.067H32.934v-0.067
		c-0.713-2.519-1.297-5.058-1.817-7.599c-0.18-0.888-0.357-1.773-0.526-2.666c-0.376-2.096-0.704-4.192-0.989-6.301
		c-0.198-1.621-0.323-3.252-0.442-4.882c-0.116-1.631-0.257-3.17-0.305-4.762c-0.071-3.401-0.071-6.769,0.135-10.179l3.271-52.172
		c0.347-5.142,0.988-10.264,1.92-15.334c0.256-1.461,0.579-2.961,0.887-4.377c0.792-3.75,1.732-7.451,2.827-11.104
		c0.415-1.375,0.777-2.766,1.236-4.119c1.553-4.704,3.356-9.32,5.402-13.831c0.443-0.987,0.989-1.885,1.461-2.846
		c1.698-3.478,3.541-6.874,5.523-10.193c0.989-1.692,2.094-3.353,3.179-5.003c1.669-2.526,3.449-4.997,5.288-7.418
		c1.265-1.659,2.488-3.349,3.834-4.94c2.875-3.449,5.925-6.776,9.127-9.946l0.12-0.131h54.511v55.166
		c0.015,10.733,2.514,21.316,7.304,30.927l14.544,29.073c3.343,6.695,10.188,10.927,17.67,10.927
		c7.486,0,14.332-4.229,17.675-10.927l14.544-29.088c4.785-9.601,7.284-20.179,7.298-30.912v-55.166h59l0.12,0.131
		c3.218,3.169,6.252,6.497,9.127,9.946c1.347,1.611,2.572,3.3,3.835,4.94c1.837,2.421,3.613,4.939,5.283,7.418
		c1.089,1.65,2.164,3.311,3.183,5.003c1.975,3.291,3.815,6.69,5.522,10.193c0.463,0.989,0.984,1.878,1.463,2.846
		c2.045,4.511,3.85,9.127,5.401,13.831c0.454,1.354,0.82,2.744,1.235,4.119c1.101,3.654,2.041,7.357,2.827,11.104
		c0.303,1.465,0.631,2.965,0.887,4.377c0.945,5.07,1.603,10.192,1.979,15.334l3.258,52.172c0.207,3.4,0.222,6.776,0.12,10.129
		c-0.097,1.588-0.237,3.188-0.357,4.781L309.492,391.437L309.492,391.437z"/>
	<path d="M473.351,89.218h-2.755l-1.123-3.362c-3.749-11.293-4.689-23.329-2.751-35.069c2.837-16.98-4.636-34.027-19.049-43.444
		c-14.409-9.416-33.024-9.416-47.434,0c-14.414,9.417-21.887,26.464-19.051,43.444c1.94,11.736,0.999,23.767-2.739,35.06
		l-1.123,3.362h-2.77c-16.369,0-29.64,13.266-29.64,29.638c0,16.368,13.271,29.638,29.64,29.638h9.879v134.201
		c0.015,10.733,2.514,21.32,7.304,30.932l14.545,29.082c3.343,6.695,10.188,10.926,17.668,10.926c7.487,0,14.333-4.23,17.677-10.926
		l14.544-29.092c4.785-9.61,7.283-20.192,7.299-30.922v-134.19h9.879c16.372,0,29.638-13.271,29.638-29.639
		C502.988,102.483,489.723,89.218,473.351,89.218z M400.679,47.544c-1.148-6.845,0.781-13.845,5.276-19.136
		c4.611-5.069,11.147-7.959,17.997-7.959c6.855,0,13.394,2.89,18.004,7.959c4.495,5.286,6.427,12.285,5.276,19.127
		c-2.305,13.911-1.423,28.161,2.586,41.683h-51.727C402.097,75.702,402.984,61.452,400.679,47.544z M443.713,282.687
		c-0.011,7.668-1.796,15.232-5.216,22.098l-14.545,29.083l-14.538-29.083c-3.42-6.864-5.206-14.43-5.221-22.098V148.494h39.52
		V282.687z M473.351,128.734h-98.793c-5.457,0-9.88-4.423-9.88-9.879s4.423-9.879,9.88-9.879h98.793c5.46,0,9.879,4.423,9.879,9.879
		S478.811,128.734,473.351,128.734z"/>
	<path d="M432.175,377.784c-1.937-2.592-4.984-4.12-8.223-4.12c-3.23,0-6.278,1.528-8.214,4.12l-28.562,42.835
		c-8.244,12.334-12.633,26.845-12.619,41.679c0,27.283,22.118,49.396,49.396,49.396c27.285,0,49.397-22.112,49.397-49.396
		c0.019-14.834-4.371-29.345-12.614-41.679L432.175,377.784z M423.952,491.935c-16.365,0-29.638-13.266-29.638-29.637
		c-0.009-10.931,3.223-21.621,9.3-30.715l20.338-30.535l20.344,30.507c6.083,9.099,9.314,19.804,9.296,30.743
		C453.592,478.669,440.325,491.935,423.952,491.935z"/>
	<path d="M69.964,269.11l-7.492,11.229c-9.098,13.618-13.945,29.632-13.931,46.011v7.516c0,5.455,4.423,9.88,9.879,9.88
		c5.46,0,9.88-4.425,9.88-9.88v-7.516c-0.01-12.479,3.685-24.68,10.612-35.056l7.485-11.222c3.03-4.539,1.805-10.674-2.734-13.704
		C79.125,263.346,72.987,264.569,69.964,269.11z"/>
	<path d="M58.42,363.504c-5.456,0-9.879,4.424-9.879,9.88v9.879c0,5.456,4.423,9.881,9.879,9.881c5.46,0,9.88-4.425,9.88-9.881
		v-9.879C68.3,367.928,63.88,363.504,58.42,363.504z"/>
	<path d="M157.213,452.417h19.759v19.76h-19.759V452.417z"/>
	<path d="M196.729,452.417h19.759v19.76h-19.759V452.417z"/>
</g>
</svg>
