<?xml version="1.0" encoding="utf-8"?>
<!-- Generator: Adobe Illustrator 15.1.0, SVG Export Plug-In . SVG Version: 6.00 Build 0)  -->
<!DOCTYPE svg PUBLIC "-//W3C//DTD SVG 1.1//EN" "http://www.w3.org/Graphics/SVG/1.1/DTD/svg11.dtd">
<svg version="1.1" id="Calque_1" xmlns="http://www.w3.org/2000/svg" xmlns:xlink="http://www.w3.org/1999/xlink" x="0px" y="0px"
	 width="512px" height="512px" viewBox="0 0 512 512" enable-background="new 0 0 512 512" xml:space="preserve">
<g>
	<g>
		<path d="M437.332,192h-32v-42.667C405.332,66.99,338.344,0,256,0c-82.345,0-149.333,66.99-149.333,149.333V192h-32
			C68.771,192,64,196.771,64,202.667v266.667C64,492.865,83.135,512,106.667,512h298.667c23.53,0,42.666-19.135,42.666-42.667
			V202.667C448,196.771,443.229,192,437.332,192z M287.938,414.823c0.334,3.01-0.635,6.03-2.654,8.292
			c-2.021,2.26-4.917,3.552-7.948,3.552h-42.667c-3.031,0-5.927-1.292-7.948-3.552c-2.021-2.26-2.99-5.281-2.656-8.292l6.729-60.511
			c-10.927-7.947-17.458-20.521-17.458-34.313c0-23.531,19.135-42.667,42.667-42.667s42.667,19.135,42.667,42.667
			c0,13.792-6.531,26.365-17.458,34.313L287.938,414.823z M341.332,192H170.667v-42.667C170.667,102.281,208.948,64,256,64
			c47.052,0,85.332,38.281,85.332,85.333V192z"/>
	</g>
</g>
</svg>
