<?xml version="1.0" encoding="utf-8"?>
<!-- Generator: Adobe Illustrator 15.1.0, SVG Export Plug-In . SVG Version: 6.00 Build 0)  -->
<!DOCTYPE svg PUBLIC "-//W3C//DTD SVG 1.1//EN" "http://www.w3.org/Graphics/SVG/1.1/DTD/svg11.dtd">
<svg version="1.1" id="Calque_1" xmlns="http://www.w3.org/2000/svg" xmlns:xlink="http://www.w3.org/1999/xlink" x="0px" y="0px"
	 width="512px" height="512px" viewBox="0 0 512 512" enable-background="new 0 0 512 512" xml:space="preserve">
<g>
	<g>
		<path d="M256.001,0C153.756,0,70.573,83.182,70.573,185.426c0,126.889,165.94,313.167,173.006,321.036
			c6.636,7.391,18.222,7.378,24.846,0c7.064-7.868,173.004-194.146,173.004-321.036C441.426,83.182,358.244,0,256.001,0z
			 M256.001,278.72c-51.442,0-93.292-41.851-93.292-93.293c0-51.442,41.851-93.292,93.292-93.292
			c51.44,0,93.291,41.852,93.291,93.293C349.291,236.87,307.442,278.72,256.001,278.72z"/>
	</g>
</g>
</svg>
