<?xml version="1.0" encoding="utf-8"?>
<!-- Generator: Adobe Illustrator 15.1.0, SVG Export Plug-In . SVG Version: 6.00 Build 0)  -->
<!DOCTYPE svg PUBLIC "-//W3C//DTD SVG 1.1//EN" "http://www.w3.org/Graphics/SVG/1.1/DTD/svg11.dtd">
<svg version="1.1" id="Calque_1" xmlns="http://www.w3.org/2000/svg" xmlns:xlink="http://www.w3.org/1999/xlink" x="0px" y="0px"
	 width="512px" height="512px" viewBox="0 0 512 512" enable-background="new 0 0 512 512" xml:space="preserve">
<g>
	<path d="M156.186,355.01c-15.105,0-36.027-28.438-36.027-81.832c0-38.536,138.499-177.55,225.799-256.124
		c4.017-3.613,4.336-9.801,0.728-13.816c-3.617-4.016-9.793-4.34-13.813-0.728c-23.781,21.395-232.28,210.779-232.28,270.667
		c0,65.859,28.645,101.398,55.594,101.398c28.488,0,93.281,13.605,93.281,36.022c0,13.581-9.465,28.43-18.625,42.788
		c-11.379,17.841-23.148,36.293-14.695,53.203c1.719,3.431,5.168,5.41,8.762,5.41c1.47,0,2.961-0.332,4.363-1.035
		c4.836-2.414,6.793-8.293,4.375-13.125c-3.496-6.987,5.246-20.69,13.691-33.934c10.164-15.949,21.694-34.017,21.694-53.31
		C269.031,364.674,174.749,355.01,156.186,355.01z"/>
	<path d="M331.189,357.295c1.559-3.543,0.887-7.676-1.719-10.543c-39.152-43.023-62.81-57.758-79.045-49.297
		c-17.396,9.051-12.207,38.867-10.203,47.789c1.184,5.262,6.43,8.602,11.672,7.391c5.273-1.172,8.588-6.406,7.414-11.672
		c-2.59-11.668-2.035-24.168,0.074-26.121c0.145-0.023,9.039-2.207,40.039,28.715h-18.6c-5.41,0-9.785,4.379-9.785,9.781
		s4.375,9.785,9.785,9.785h41.414C326.107,363.123,329.621,360.838,331.189,357.295z"/>
	<path d="M400.297,298.936c-1.594-5.16-7.052-8.094-12.227-6.473c-5.168,1.586-8.066,7.063-6.477,12.223
		c14.279,46.406,13.628,79.57-1.888,95.917c-18.973,19.974-55.785,11.082-56.383,10.922c-5.207-1.332-10.547,1.824-11.895,7.06
		c-1.34,5.23,1.812,10.559,7.051,11.902c0.887,0.229,10.949,2.723,24.19,2.723c15.919,0,36.419-3.602,51.141-19.047
		C414.853,392.096,417.035,353.326,400.297,298.936z"/>
</g>
</svg>
