<?xml version="1.0" encoding="utf-8"?>
<!-- Generator: Adobe Illustrator 15.1.0, SVG Export Plug-In . SVG Version: 6.00 Build 0)  -->
<!DOCTYPE svg PUBLIC "-//W3C//DTD SVG 1.1//EN" "http://www.w3.org/Graphics/SVG/1.1/DTD/svg11.dtd">
<svg version="1.1" id="Calque_1" xmlns="http://www.w3.org/2000/svg" xmlns:xlink="http://www.w3.org/1999/xlink" x="0px" y="0px"
	 width="512px" height="512px" viewBox="0 0 512 512" enable-background="new 0 0 512 512" xml:space="preserve">
<g id="surface1">
	<path d="M473.489,138.917l-0.016-0.398c-0.223-4.918-0.371-10.121-0.461-15.91c-0.418-28.23-22.859-51.582-51.094-53.16
		C363.053,66.165,317.512,46.97,278.602,9.044l-0.332-0.316c-12.689-11.637-31.834-11.637-44.531,0l-0.332,0.316
		c-38.909,37.926-84.448,57.121-143.315,60.41c-28.23,1.574-50.675,24.926-51.093,53.16c-0.086,5.75-0.238,10.953-0.461,15.906
		l-0.023,0.926C37.37,199.472,35.948,274.18,60.94,341.988c13.742,37.289,34.556,69.702,61.855,96.347
		c31.094,30.344,71.819,54.434,121.046,71.598c1.602,0.56,3.266,1.013,4.961,1.353c2.391,0.477,4.797,0.715,7.203,0.715
		c2.407,0,4.815-0.238,7.204-0.715c1.693-0.34,3.371-0.797,4.979-1.359c49.168-17.194,89.854-41.297,120.92-71.637
		c27.287-26.651,48.1-59.073,61.854-96.37C476.049,273.905,474.631,199.058,473.489,138.917z M422.774,331.521
		c-26.357,71.469-80.166,120.551-164.5,150.043c-0.301,0.102-0.621,0.19-0.953,0.258c-0.871,0.172-1.756,0.172-2.639-0.004
		c-0.328-0.066-0.648-0.152-0.945-0.254C169.315,452.126,115.471,403.072,89.132,331.6c-23.035-62.504-21.73-131.082-20.578-191.581
		l0.008-0.336c0.234-5.199,0.392-10.645,0.478-16.629c0.188-12.535,10.172-22.906,22.729-23.605
		c33.313-1.859,62.578-8.297,89.469-19.68c26.855-11.367,50.707-27.391,72.91-48.983c1.129-0.953,2.593-0.957,3.718,0
		c22.207,21.593,46.059,37.616,72.91,48.983c26.891,11.383,56.156,17.82,89.473,19.68c12.559,0.699,22.543,11.07,22.727,23.609
		c0.09,6.016,0.246,11.461,0.48,16.625C444.604,200.253,445.877,268.887,422.774,331.521z"/>
	<path d="M255.999,128.41c-70.359,0-127.598,57.242-127.598,127.597c0,70.359,57.238,127.603,127.598,127.603
		c70.355,0,127.597-57.242,127.597-127.603C383.596,185.651,326.354,128.41,255.999,128.41z M255.999,353.561
		c-53.793,0-97.555-43.762-97.555-97.555s43.762-97.554,97.555-97.554c53.789,0,97.55,43.761,97.55,97.554
		S309.785,353.561,255.999,353.561z"/>
	<path d="M292.67,216.394l-59.266,59.266l-16.086-16.086c-5.866-5.867-15.379-5.867-21.246,0c-5.862,5.867-5.862,15.379,0,21.242
		l26.712,26.711c2.934,2.934,6.776,4.397,10.62,4.397c3.845,0,7.688-1.465,10.621-4.397l69.889-69.891
		c5.863-5.867,5.863-15.379,0-21.242C308.049,210.522,298.535,210.522,292.67,216.394z"/>
</g>
</svg>
