<?xml version="1.0" encoding="utf-8"?>
<!-- Generator: Adobe Illustrator 15.1.0, SVG Export Plug-In . SVG Version: 6.00 Build 0)  -->
<!DOCTYPE svg PUBLIC "-//W3C//DTD SVG 1.1//EN" "http://www.w3.org/Graphics/SVG/1.1/DTD/svg11.dtd">
<svg version="1.1" id="Calque_1" xmlns="http://www.w3.org/2000/svg" xmlns:xlink="http://www.w3.org/1999/xlink" x="0px" y="0px"
	 width="512px" height="512px" viewBox="0 0 512 512" enable-background="new 0 0 512 512" xml:space="preserve">
<g>
	<path d="M244.624,0c7.396,0,14.791,0,22.185,0c1.492,0.202,2.98,0.5,4.479,0.592c25.039,1.53,49.391,6.46,72.887,15.258
		c52.336,19.593,94.121,52.681,125.113,99.142c24.252,36.354,38.057,76.467,41.607,120.068c0.291,3.573,0.732,7.134,1.105,10.701
		c0,6.637,0,13.273,0,19.911c-0.188,1.293-0.48,2.581-0.551,3.882c-1.377,25.732-6.242,50.793-15.463,74.848
		c-25.854,67.45-71.775,116.163-137.613,145.917c-24.008,10.853-49.26,17.355-75.486,20.005c-5.734,0.579-11.479,1.119-17.215,1.677
		c-6.447,0-12.896,0-19.342,0c-1.306-0.188-2.608-0.389-3.915-0.559c-12.861-1.666-25.94-2.349-38.547-5.148
		C125.515,488.891,67.272,444.5,29.14,373.973c-15.312-28.32-24.174-58.785-27.492-90.831c-0.563-5.442-1.1-10.89-1.649-16.334
		c0-7.396,0-14.791,0-22.187c0.2-1.298,0.502-2.591,0.583-3.896c1.958-31.922,9.329-62.538,22.955-91.473
		C51.173,90.576,94.668,47.893,153.934,21.453c23.783-10.609,48.718-17.103,74.633-19.783C233.92,1.116,239.271,0.558,244.624,0z
		 M256.043,11.402C120.734,11.522,11.41,121.157,11.403,256.736c-0.007,134.002,109.868,243.585,244.473,243.822
		c134.382,0.235,244.72-109.913,244.642-244.223C500.442,121.148,390.78,11.283,256.043,11.402z"/>
	<path d="M245.129,350.371c1.494-3.954,3.096-7.871,4.463-11.867c11.036-32.256,21.76-64.623,33.108-96.771
		c11.064-31.34,27.213-60.02,47.422-86.381c4.109-5.361,8.879-10.217,13.314-15.331c0.863-0.995,1.59-2.107,2.381-3.167
		c-0.156-0.35-0.313-0.699-0.469-1.049c-2.205,0.427-4.512,0.573-6.598,1.329c-8.24,2.987-15.529,7.544-21.803,13.715
		c-12.982,12.763-24.285,26.729-31.602,43.594c-0.396,0.915-0.93,1.774-1.469,2.615c-0.186,0.287-0.584,0.434-1.396,1.004
		c-0.502-1.361-1.15-2.5-1.332-3.709c-2.373-15.851,0.24-31.026,6.908-45.449c11.131-24.085,28.43-41.023,55.248-46.651
		c9.564-2.007,19.1-4.175,28.635-6.333c12.834-2.906,25.648-5.909,38.486-8.802c4.926-1.109,5.854-0.22,4.422,4.598
		c-5.027,16.938-7.1,34.39-8.521,51.87c-2.311,28.344-19.467,45.076-43.092,57.098c-11.447,5.824-23.992,7.943-36.406,10.38
		c-4.936,0.968-8.275,3.427-10.982,7.623c-8.242,12.786-13.164,27.041-18.27,41.156c-13.428,37.123-22.785,75.295-28.68,114.338
		c-2.074,13.754-4.686,27.43-7.123,41.128c-0.328,1.835-0.988,3.624-1.643,5.381c-1.191,3.189-3.531,4.681-6.975,4.614
		c-5.142-0.095-10.285-0.062-15.429-0.092c-5.948-0.033-7.164-1.059-8.424-6.8c-4.249-19.344-8.166-38.767-12.871-57.997
		c-11.586-47.373-23.536-94.634-41.202-140.256c-13.585-35.086-32.682-66.837-56.074-96.125
		c-6.259-7.836-12.911-15.359-19.329-23.07c-1.226-1.472-2.204-3.148-3.296-4.732c0.209-0.309,0.418-0.619,0.628-0.93
		c1.645,0.282,3.349,0.376,4.926,0.871c9.877,3.105,18.111,9.114,26.17,15.297c16.872,12.945,30.11,29.373,43.368,45.776
		c18.635,23.056,29.951,49.9,38.63,77.719c10.597,33.968,19.577,68.439,29.302,102.68c1.216,4.281,2.718,8.482,4.087,12.722
		C244.143,350.368,244.635,350.369,245.129,350.371z"/>
</g>
</svg>
